<svg width="18" height="18" viewBox="0 0 18 18" fill="none" xmlns="http://www.w3.org/2000/svg">
<g id="Group">
<path id="Vector" d="M9.00078 12.2008C10.7681 12.2008 12.2008 10.7681 12.2008 9.00078C12.2008 7.23347 10.7681 5.80078 9.00078 5.80078C7.23347 5.80078 5.80078 7.23347 5.80078 9.00078C5.80078 10.7681 7.23347 12.2008 9.00078 12.2008Z" stroke="#DDD6D8" stroke-width="2"/>
<path id="Vector_2" d="M17 9C17 4.5816 13.4184 1 9 1C4.5816 1 1 4.5816 1 9C1 13.4184 4.5816 17 9 17C10.8016 17 12.464 16.4048 13.8008 15.4" stroke="#DDD6D8" stroke-width="2" stroke-linecap="round" stroke-linejoin="round"/>
<path id="Vector_3" d="M12.1992 5.80078V9.00078C12.1992 9.80078 12.6792 11.4008 14.5992 11.4008C16.5192 11.4008 16.9992 9.80078 16.9992 9.00078" stroke="#DDD6D8" stroke-width="2" stroke-linecap="round"/>
</g>
</svg>
