<svg width="4" height="18" viewBox="0 0 4 18" fill="none" xmlns="http://www.w3.org/2000/svg">
<g id="Group">
<path id="Vector" d="M0.999566 1.88889C0.999566 2.37981 1.39754 2.77778 1.88845 2.77778C2.37937 2.77778 2.77734 2.37981 2.77734 1.88889C2.77734 1.39797 2.37937 1 1.88845 1C1.39754 1 0.999566 1.39797 0.999566 1.88889Z" stroke="white" stroke-opacity="0.8" stroke-width="1.77778"/>
<path id="Vector_2" d="M0.999566 9.00022C0.999566 9.49114 1.39754 9.88911 1.88845 9.88911C2.37937 9.88911 2.77734 9.49114 2.77734 9.00022C2.77734 8.5093 2.37937 8.11133 1.88845 8.11133C1.39754 8.11133 0.999566 8.5093 0.999566 9.00022Z" stroke="white" stroke-opacity="0.8" stroke-width="1.77778"/>
<path id="Vector_3" d="M0.999566 16.1115C0.999566 16.6025 1.39754 17.0004 1.88845 17.0004C2.37937 17.0004 2.77734 16.6025 2.77734 16.1115C2.77734 15.6206 2.37937 15.2227 1.88845 15.2227C1.39754 15.2227 0.999566 15.6206 0.999566 16.1115Z" stroke="white" stroke-opacity="0.8" stroke-width="1.77778"/>
</g>
</svg>
